<svg width="513" height="512" viewBox="0 0 513 512" fill="none" xmlns="http://www.w3.org/2000/svg">
<circle cx="256.5" cy="256" r="256" fill="#FF9522"/>
<g filter="url(#filter0_d_1658_7702)">
<path d="M385.254 217.524C383.595 213.47 381.182 209.776 378.165 206.698C375.099 203.569 371.529 201.107 367.506 199.465C365.847 198.746 364.188 198.233 362.479 197.823C362.932 195.668 363.132 193.411 363.132 191.153C363.132 186.741 362.278 182.433 360.619 178.379C358.959 174.326 356.546 170.632 353.529 167.554C350.463 164.425 346.892 161.962 342.87 160.321C338.899 158.628 334.625 157.755 330.302 157.755C325.978 157.755 321.755 158.628 317.732 160.321C317.179 160.577 316.626 160.834 316.074 161.09C316.023 156.832 315.169 152.625 313.609 148.675C311.95 144.622 309.537 140.928 306.52 137.85C303.454 134.669 299.834 132.207 295.861 130.565C291.889 128.872 287.616 128 283.293 128C278.968 128 274.746 128.872 270.723 130.565C266.751 132.258 263.131 134.721 260.064 137.799C258.706 139.184 257.5 140.62 256.444 142.211C255.338 140.62 254.132 139.184 252.824 137.799C249.858 134.669 246.238 132.207 242.266 130.565C238.294 128.872 234.021 128 229.696 128C225.373 128 221.149 128.872 217.127 130.565C213.155 132.258 209.535 134.721 206.469 137.799C203.401 140.877 200.988 144.571 199.379 148.624C197.771 152.574 196.966 156.781 196.915 161.039C192.542 158.884 187.665 157.704 182.687 157.704C178.364 157.704 174.14 158.576 170.118 160.269C166.197 161.962 162.577 164.425 159.509 167.503C156.443 170.632 154.03 174.275 152.421 178.328C150.762 182.38 149.906 186.741 149.906 191.102C149.906 193.359 150.108 195.565 150.56 197.771C148.85 198.182 147.142 198.746 145.532 199.413C141.561 201.107 137.941 203.569 134.873 206.647C131.807 209.776 129.394 213.419 127.784 217.471C126.126 221.524 125.271 225.885 125.271 230.246C125.271 239.121 128.74 247.637 134.873 253.896C141.008 260.155 149.354 263.695 158.051 263.695C166.749 263.695 175.096 260.155 181.23 253.896C181.733 253.383 182.235 252.87 182.687 252.306V254.923H330.302V252.306C330.754 252.87 331.257 253.383 331.759 253.896C337.893 260.155 346.24 263.695 354.937 263.695C363.635 263.695 371.982 260.155 378.116 253.896C384.249 247.637 387.718 239.121 387.718 230.246C387.768 225.936 386.913 221.626 385.254 217.524Z" fill="white"/>
<path d="M321.308 383.998C323.016 383.998 324.174 382.305 323.67 380.611L321.71 374.405C321.357 373.276 321.81 371.993 322.816 371.429C324.123 370.659 326.084 369.53 328.548 367.991C332.921 365.324 338.854 361.476 345.239 356.756C346.747 355.678 348.206 354.602 349.664 353.472C352.58 351.266 355.496 348.804 358.412 346.137C359.065 345.573 359.668 345.008 360.322 344.443H360.222C377.165 328.078 392.5 303.658 392.5 270.209V236.656C392.5 234.092 390.288 232.142 387.824 232.501C371.434 235.067 314.369 243.327 256.952 243.327C199.436 243.327 141.566 235.067 125.076 232.501C122.712 232.142 120.5 234.092 120.5 236.656V270.209C120.5 303.555 135.684 327.924 152.879 344.443H152.728C153.834 345.469 154.94 346.445 156.045 347.368C160.118 351.01 164.241 354.293 168.263 357.116C173.492 360.963 178.369 364.143 182.291 366.657C185.86 368.864 188.676 370.506 190.335 371.429C191.341 371.993 191.843 373.224 191.492 374.405L189.631 380.611C189.128 382.253 190.285 383.998 191.994 383.998H321.308Z" fill="url(#paint0_linear_1658_7702)"/>
</g>
<defs>
<filter id="filter0_d_1658_7702" x="110.5" y="122" width="292" height="275.998" filterUnits="userSpaceOnUse" color-interpolation-filters="sRGB">
<feFlood flood-opacity="0" result="BackgroundImageFix"/>
<feColorMatrix in="SourceAlpha" type="matrix" values="0 0 0 0 0 0 0 0 0 0 0 0 0 0 0 0 0 0 127 0" result="hardAlpha"/>
<feOffset dy="4"/>
<feGaussianBlur stdDeviation="5"/>
<feColorMatrix type="matrix" values="0 0 0 0 0 0 0 0 0 0 0 0 0 0 0 0 0 0 0.1 0"/>
<feBlend mode="normal" in2="BackgroundImageFix" result="effect1_dropShadow_1658_7702"/>
<feBlend mode="normal" in="SourceGraphic" in2="effect1_dropShadow_1658_7702" result="shape"/>
</filter>
<linearGradient id="paint0_linear_1658_7702" x1="152.59" y1="238.445" x2="362.151" y2="378.718" gradientUnits="userSpaceOnUse">
<stop stop-color="#F7ECD1"/>
<stop offset="1" stop-color="#F4B59E"/>
</linearGradient>
</defs>
</svg>
