<svg width="24" height="19" viewBox="0 0 24 19" fill="none" xmlns="http://www.w3.org/2000/svg">
<path d="M12.123 15.793C13.5293 15.793 14.7246 15.3008 15.709 14.3164C16.6934 13.332 17.1855 12.1367 17.1855 10.7305C17.1855 9.32422 16.6934 8.12891 15.709 7.14453C14.7246 6.16016 13.5293 5.66797 12.123 5.66797C10.7168 5.66797 9.52148 6.16016 8.53711 7.14453C7.55273 8.12891 7.06055 9.32422 7.06055 10.7305C7.06055 12.1367 7.55273 13.332 8.53711 14.3164C9.52148 15.3008 10.7168 15.793 12.123 15.793ZM12.123 13.543C11.3355 13.543 10.6699 13.2711 10.1262 12.7273C9.58242 12.1836 9.31055 11.518 9.31055 10.7305C9.31055 9.94297 9.58242 9.27734 10.1262 8.73359C10.6699 8.18984 11.3355 7.91797 12.123 7.91797C12.9105 7.91797 13.5762 8.18984 14.1199 8.73359C14.6637 9.27734 14.9355 9.94297 14.9355 10.7305C14.9355 11.518 14.6637 12.1836 14.1199 12.7273C13.5762 13.2711 12.9105 13.543 12.123 13.543ZM3.12305 18.6055C2.5043 18.6055 1.97461 18.3852 1.53398 17.9445C1.09336 17.5039 0.873047 16.9742 0.873047 16.3555V5.10547C0.873047 4.48672 1.09336 3.95703 1.53398 3.51641C1.97461 3.07578 2.5043 2.85547 3.12305 2.85547H6.6668L8.07305 1.33672C8.2793 1.11172 8.52773 0.933594 8.81836 0.802344C9.10898 0.671094 9.41367 0.605469 9.73242 0.605469H14.5137C14.8324 0.605469 15.1371 0.671094 15.4277 0.802344C15.7184 0.933594 15.9668 1.11172 16.173 1.33672L17.5793 2.85547H21.123C21.7418 2.85547 22.2715 3.07578 22.7121 3.51641C23.1527 3.95703 23.373 4.48672 23.373 5.10547V16.3555C23.373 16.9742 23.1527 17.5039 22.7121 17.9445C22.2715 18.3852 21.7418 18.6055 21.123 18.6055H3.12305Z" fill="#ADADAD"/>
</svg>
