<svg width="15" height="18" viewBox="0 0 15 18" fill="none" xmlns="http://www.w3.org/2000/svg">
<path d="M12.7572 17.5615C12.136 17.5615 11.6089 17.3444 11.1759 16.9101C10.7434 16.4751 10.5272 15.9471 10.5272 15.326C10.5272 15.2322 10.5685 14.9957 10.651 14.6164L3.90495 10.6112C3.70248 10.8449 3.45471 11.0283 3.16164 11.1614C2.86856 11.2945 2.55393 11.361 2.21774 11.361C1.6016 11.361 1.07794 11.1417 0.646763 10.703C0.215588 10.2644 0 9.73851 0 9.12549C0 8.51247 0.215588 7.98662 0.646763 7.54795C1.07794 7.10928 1.6016 6.88994 2.21774 6.88994C2.55331 6.88994 2.86794 6.95649 3.16164 7.08959C3.45534 7.22269 3.70311 7.40641 3.90495 7.64075L10.6519 3.65238C10.6082 3.53115 10.5766 3.41086 10.5572 3.2915C10.5372 3.17152 10.5272 3.04904 10.5272 2.92406C10.5272 2.30355 10.745 1.77583 11.1806 1.3409C11.6161 0.906603 12.1448 0.689453 12.7665 0.689453C13.3883 0.689453 13.9157 0.907228 14.3488 1.34278C14.7818 1.77833 14.998 2.30698 14.9974 2.92875C14.9968 3.55052 14.7796 4.07793 14.3459 4.51098C13.9123 4.94403 13.3842 5.16024 12.7618 5.15961C12.4232 5.15961 12.1107 5.09025 11.8245 4.95153C11.5383 4.8128 11.2946 4.62627 11.0934 4.39193L4.3455 8.39718C4.38924 8.51841 4.42079 8.63901 4.44017 8.75899C4.46016 8.87834 4.47016 9.00051 4.47016 9.12549C4.47016 9.25047 4.46016 9.37263 4.44017 9.49199C4.42017 9.61134 4.38893 9.73195 4.34643 9.8538L11.0934 13.859C11.2952 13.6247 11.5389 13.4382 11.8245 13.2994C12.1107 13.1607 12.4232 13.0914 12.7618 13.0914C13.383 13.0914 13.911 13.3088 14.3459 13.7437C14.7802 14.1799 14.9974 14.7089 14.9974 15.3307C14.9974 15.9524 14.7796 16.4798 14.3441 16.9129C13.9085 17.3459 13.3789 17.5621 12.7572 17.5615ZM12.7618 16.6242C13.1299 16.6242 13.4383 16.4998 13.687 16.2511C13.9357 16.0024 14.0601 15.6943 14.0601 15.3269C14.0601 14.9595 13.9357 14.6511 13.687 14.4018C13.4383 14.1524 13.1302 14.0281 12.7628 14.0287C12.3953 14.0293 12.087 14.1537 11.8376 14.4018C11.5883 14.6498 11.4639 14.9579 11.4646 15.326C11.4652 15.694 11.5896 16.0024 11.8376 16.2511C12.0857 16.4998 12.3932 16.6242 12.7618 16.6242ZM2.21774 10.4228C2.59018 10.4228 2.90262 10.2984 3.15508 10.0497C3.40691 9.801 3.53282 9.49292 3.53282 9.12549C3.53282 8.75805 3.40691 8.44998 3.15508 8.20127C2.90325 7.95257 2.5908 7.82821 2.21774 7.82821C1.85468 7.82821 1.55067 7.95257 1.30571 8.20127C1.06075 8.44998 0.937962 8.75805 0.937337 9.12549C0.936712 9.49292 1.0595 9.80131 1.30571 10.0506C1.55192 10.3 1.85593 10.424 2.21774 10.4228ZM12.7628 4.22228C13.1302 4.22228 13.4383 4.09792 13.687 3.84922C13.9357 3.60051 14.0601 3.29213 14.0601 2.92406C14.0601 2.556 13.9357 2.24793 13.687 1.99985C13.4383 1.75177 13.1302 1.62742 12.7628 1.62679C12.3953 1.62617 12.087 1.75052 11.8376 1.99985C11.5883 2.24918 11.4639 2.55757 11.4646 2.925C11.4652 3.29244 11.5896 3.60051 11.8376 3.84922C12.0857 4.09792 12.3941 4.22228 12.7628 4.22228Z" fill="#FF9522"/>
</svg>
