<svg width="24" height="25" viewBox="0 0 24 25" fill="none" xmlns="http://www.w3.org/2000/svg">
<g clip-path="url(#clip0_2432_2392)">
<rect y="0.668457" width="24" height="24" rx="12" fill="#FF9522"/>
<g filter="url(#filter0_d_2432_2392)">
<path d="M17.794 10.9368C17.7193 10.7544 17.6107 10.5881 17.475 10.4496C17.337 10.3088 17.1764 10.198 16.9953 10.1241C16.9207 10.0918 16.846 10.0687 16.7691 10.0502C16.7895 9.95328 16.7985 9.85171 16.7985 9.75009C16.7985 9.55155 16.7601 9.35767 16.6854 9.17526C16.6107 8.99288 16.5021 8.82666 16.3664 8.68815C16.2284 8.54732 16.0677 8.43651 15.8867 8.36263C15.708 8.28644 15.5157 8.2472 15.3211 8.2472C15.1266 8.2472 14.9365 8.28644 14.7555 8.36263C14.7306 8.37417 14.7057 8.38572 14.6809 8.39726C14.6786 8.20565 14.6401 8.01634 14.57 7.83857C14.4953 7.65619 14.3867 7.48998 14.251 7.35146C14.113 7.20832 13.9501 7.09751 13.7713 7.02364C13.5926 6.94745 13.4003 6.9082 13.2057 6.9082C13.0111 6.9082 12.8211 6.94745 12.6401 7.02364C12.4614 7.09982 12.2985 7.21063 12.1604 7.34915C12.0993 7.41148 12.045 7.47612 11.9975 7.54769C11.9478 7.47612 11.8935 7.41148 11.8346 7.34915C11.7011 7.20832 11.5382 7.09751 11.3595 7.02364C11.1808 6.94745 10.9885 6.9082 10.7939 6.9082C10.5993 6.9082 10.4093 6.94745 10.2283 7.02364C10.0495 7.09982 9.88662 7.21063 9.74864 7.34915C9.61061 7.48767 9.50201 7.65388 9.42963 7.83626C9.35724 8.01403 9.32102 8.20334 9.31874 8.39495C9.12196 8.29799 8.90247 8.24489 8.67848 8.24489C8.48392 8.24489 8.29386 8.28414 8.11288 8.36032C7.9364 8.43651 7.7735 8.54732 7.63546 8.68584C7.49749 8.82666 7.38888 8.99057 7.3165 9.17296C7.24184 9.35531 7.20334 9.55155 7.20334 9.74779C7.20334 9.84935 7.21241 9.94862 7.23277 10.0479C7.15582 10.0664 7.07893 10.0918 7.0065 10.1218C6.82779 10.198 6.66489 10.3088 6.52685 10.4473C6.38888 10.5881 6.28027 10.7521 6.20784 10.9344C6.13323 11.1168 6.09473 11.313 6.09473 11.5093C6.09473 11.9086 6.25084 12.2919 6.52685 12.5735C6.80292 12.8552 7.17847 13.0145 7.56987 13.0145C7.96127 13.0145 8.33687 12.8552 8.61288 12.5735C8.63553 12.5504 8.65812 12.5273 8.67848 12.502V12.6197H15.3211V12.502C15.3415 12.5273 15.3641 12.5504 15.3867 12.5735C15.6627 12.8552 16.0383 13.0145 16.4297 13.0145C16.8211 13.0145 17.1967 12.8552 17.4728 12.5735C17.7488 12.2919 17.9049 11.9086 17.9049 11.5093C17.9071 11.3153 17.8687 11.1214 17.794 10.9368Z" fill="white"/>
<path d="M14.9162 18.4282C14.9931 18.4282 15.0452 18.352 15.0226 18.2758L14.9343 17.9965C14.9185 17.9457 14.9388 17.8879 14.9841 17.8625C15.0429 17.8279 15.1312 17.7771 15.242 17.7078C15.4388 17.5878 15.7058 17.4147 15.9931 17.2023C16.061 17.1538 16.1267 17.1053 16.1922 17.0545C16.3235 16.9552 16.4547 16.8444 16.5859 16.7244C16.6153 16.699 16.6425 16.6736 16.6719 16.6482H16.6674C17.4298 15.9118 18.1199 14.8129 18.1199 13.3077V11.7978C18.1199 11.6824 18.0203 11.5947 17.9095 11.6108C17.1719 11.7263 14.604 12.098 12.0202 12.098C9.43199 12.098 6.82787 11.7263 6.08579 11.6108C5.97942 11.5947 5.87988 11.6824 5.87988 11.7978V13.3077C5.87988 14.8082 6.56315 15.9048 7.33694 16.6482H7.33016C7.37989 16.6944 7.42969 16.7383 7.47943 16.7798C7.66269 16.9437 7.84824 17.0914 8.02923 17.2185C8.26451 17.3916 8.484 17.5347 8.66048 17.6478C8.8211 17.7471 8.94778 17.821 9.02245 17.8625C9.06774 17.8879 9.09032 17.9433 9.07452 17.9965L8.99079 18.2758C8.96815 18.3496 9.02022 18.4282 9.09711 18.4282H14.9162Z" fill="url(#paint0_linear_2432_2392)"/>
</g>
</g>
<defs>
<filter id="filter0_d_2432_2392" x="-4.12012" y="0.908203" width="32.2402" height="31.52" filterUnits="userSpaceOnUse" color-interpolation-filters="sRGB">
<feFlood flood-opacity="0" result="BackgroundImageFix"/>
<feColorMatrix in="SourceAlpha" type="matrix" values="0 0 0 0 0 0 0 0 0 0 0 0 0 0 0 0 0 0 127 0" result="hardAlpha"/>
<feOffset dy="4"/>
<feGaussianBlur stdDeviation="5"/>
<feColorMatrix type="matrix" values="0 0 0 0 0 0 0 0 0 0 0 0 0 0 0 0 0 0 0.1 0"/>
<feBlend mode="normal" in2="BackgroundImageFix" result="effect1_dropShadow_2432_2392"/>
<feBlend mode="normal" in="SourceGraphic" in2="effect1_dropShadow_2432_2392" result="shape"/>
</filter>
<linearGradient id="paint0_linear_2432_2392" x1="7.32392" y1="11.8783" x2="16.7542" y2="18.1906" gradientUnits="userSpaceOnUse">
<stop stop-color="#F7ECD1"/>
<stop offset="1" stop-color="#F4B59E"/>
</linearGradient>
<clipPath id="clip0_2432_2392">
<rect y="0.668457" width="24" height="24" rx="12" fill="white"/>
</clipPath>
</defs>
</svg>
