<svg width="24" height="24" viewBox="0 0 24 24" fill="none" xmlns="http://www.w3.org/2000/svg">
<mask id="mask0_4308_18328" style="mask-type:alpha" maskUnits="userSpaceOnUse" x="0" y="0" width="24" height="24">
<rect width="24" height="24" fill="#D9D9D9"/>
</mask>
<g mask="url(#mask0_4308_18328)">
<path fill-rule="evenodd" clip-rule="evenodd" d="M17.0775 6.20503C17.3509 5.93166 17.7941 5.93166 18.0675 6.20503C18.3408 6.47839 18.3408 6.92161 18.0675 7.19497L13.1262 12.1362L18.0675 17.0775C18.3408 17.3509 18.3408 17.7941 18.0675 18.0675C17.7941 18.3408 17.3509 18.3408 17.0775 18.0675L12.1362 13.1262L7.19498 18.0675C6.92161 18.3408 6.47839 18.3408 6.20503 18.0675C5.93166 17.7941 5.93166 17.3509 6.20503 17.0775L11.1463 12.1362L6.20503 7.19497C5.93166 6.92161 5.93166 6.47839 6.20503 6.20503C6.47839 5.93166 6.92161 5.93166 7.19498 6.20503L12.1362 11.1463L17.0775 6.20503Z" fill="black"/>
</g>
</svg>
