<svg width="28" height="29" viewBox="0 0 28 29" fill="none" xmlns="http://www.w3.org/2000/svg">
<g clip-path="url(#clip0_6748_24791)">
<path d="M6.59436 21.0998L11.6334 18.3576C11.9264 18.2404 12.067 18.135 12.2428 17.9592L23.4577 6.82638C24.5593 5.73654 24.5476 4.45919 23.4343 3.33419L20.9734 0.84982C19.8484 -0.263462 18.5709 -0.286899 17.4694 0.802945L6.24285 11.9358C6.06707 12.0998 5.9616 12.2287 5.84441 12.5217L3.05529 17.549C2.5687 18.7083 2.3868 19.6539 2.83212 20.0992L4.09904 21.3781C4.53263 21.8117 5.3479 21.6812 6.59436 21.0998ZM6.41858 19.2834C5.69258 19.6347 5.28479 20.056 4.91279 19.684L4.48929 19.2605C4.1545 18.9257 4.55926 18.3721 4.88342 17.7482L7.48505 13.2014L18.6529 2.11544C18.9928 1.79904 19.3913 1.7756 19.7077 2.09201L22.1804 4.5881C22.4968 4.91623 22.4734 5.31466 22.1452 5.64279L10.9772 16.7287L6.41858 19.2834ZM6.41863 13.2014L11.2116 18.0178L12.3131 16.9279L7.5202 12.0998L6.41863 13.2014ZM16.1451 3.55685L20.9382 8.37326L22.0398 7.29513L17.2467 2.46701L16.1451 3.55685Z" fill="white"/>
<path d="M3.38672 24.6955C5.68273 26.252 7.24666 25.0943 8.46517 24.6955C14.1343 22.8403 11.5478 25.7707 15.4337 25.771C18.8262 25.7712 22.3046 25.0411 25.3361 24.6489" stroke="white" stroke-width="1.7" stroke-linecap="round"/>
</g>
<defs>
<clipPath id="clip0_6748_24791">
<rect width="24.2812" height="28.0317" fill="white" transform="translate(2)"/>
</clipPath>
</defs>
</svg>
