<svg width="18" height="19" viewBox="0 0 18 19" fill="none" xmlns="http://www.w3.org/2000/svg">
<path d="M12.9489 5.11621H5.05143C4.68815 5.11621 4.39331 5.41105 4.39331 5.77433C4.39331 6.13761 4.68815 6.43245 5.05143 6.43245H12.9489C13.3121 6.43245 13.607 6.13761 13.607 5.77433C13.607 5.41105 13.3121 5.11621 12.9489 5.11621Z" fill="#727478"/>
<path d="M10.3164 7.74805H5.05143C4.68815 7.74805 4.39331 8.04288 4.39331 8.40617C4.39331 8.76945 4.68815 9.06429 5.05143 9.06429H10.3164C10.6797 9.06429 10.9745 8.76945 10.9745 8.40617C10.9745 8.04288 10.6797 7.74805 10.3164 7.74805Z" fill="#727478"/>
<path d="M14.9232 1.16699H3.07706C1.62525 1.16699 0.44458 2.34766 0.44458 3.79947V16.9619C0.44458 17.2172 0.591999 17.4502 0.823657 17.5581C0.911845 17.5989 1.00793 17.62 1.1027 17.62C1.25407 17.62 1.40412 17.5673 1.5239 17.4673L5.28966 14.3294H14.9232C16.375 14.3294 17.5557 13.1487 17.5557 11.6969V3.79947C17.5557 2.34766 16.375 1.16699 14.9232 1.16699ZM16.2395 11.6969C16.2395 12.4222 15.6498 13.0131 14.9232 13.0131H5.05142C4.89742 13.0131 4.74868 13.0671 4.63022 13.1658L1.76082 15.5574V3.79947C1.76082 3.07422 2.35049 2.48323 3.07706 2.48323H14.9232C15.6498 2.48323 16.2395 3.07422 16.2395 3.79947V11.6969Z" fill="#727478"/>
</svg>
