<svg width="18" height="18" viewBox="0 0 18 18" fill="none" xmlns="http://www.w3.org/2000/svg">
<path d="M12.9489 4.61536H5.05143C4.68815 4.61536 4.39331 4.91019 4.39331 5.27348C4.39331 5.63676 4.68815 5.93159 5.05143 5.93159H12.9489C13.3121 5.93159 13.607 5.63676 13.607 5.27348C13.607 4.91019 13.3121 4.61536 12.9489 4.61536Z" fill="#707070"/>
<path d="M10.3164 7.24768H5.05143C4.68815 7.24768 4.39331 7.54252 4.39331 7.9058C4.39331 8.26908 4.68815 8.56392 5.05143 8.56392H10.3164C10.6797 8.56392 10.9745 8.26908 10.9745 7.9058C10.9745 7.54252 10.6797 7.24768 10.3164 7.24768Z" fill="#707070"/>
<path d="M14.9232 0.666626H3.07706C1.62525 0.666626 0.44458 1.84729 0.44458 3.2991V16.4615C0.44458 16.7169 0.591999 16.9498 0.823657 17.0578C0.911845 17.0986 1.00793 17.1196 1.1027 17.1196C1.25407 17.1196 1.40412 17.067 1.5239 16.9669L5.28966 13.829H14.9232C16.375 13.829 17.5557 12.6484 17.5557 11.1965V3.2991C17.5557 1.84729 16.375 0.666626 14.9232 0.666626ZM16.2395 11.1965C16.2395 11.9218 15.6498 12.5128 14.9232 12.5128H5.05142C4.89742 12.5128 4.74868 12.5667 4.63022 12.6655L1.76082 15.0571V3.2991C1.76082 2.57386 2.35049 1.98287 3.07706 1.98287H14.9232C15.6498 1.98287 16.2395 2.57386 16.2395 3.2991V11.1965Z" fill="#707070"/>
</svg>
