<svg width="14" height="15" viewBox="0 0 14 15" fill="none" xmlns="http://www.w3.org/2000/svg">
<path d="M7 11.314C7.19833 11.314 7.36458 11.2469 7.49875 11.1127C7.63292 10.9785 7.7 10.8123 7.7 10.614C7.7 10.4156 7.63292 10.2494 7.49875 10.1152C7.36458 9.98105 7.19833 9.91396 7 9.91396C6.80167 9.91396 6.63542 9.98105 6.50125 10.1152C6.36708 10.2494 6.3 10.4156 6.3 10.614C6.3 10.8123 6.36708 10.9785 6.50125 11.1127C6.63542 11.2469 6.80167 11.314 7 11.314ZM7 8.51396C7.19833 8.51396 7.36458 8.44688 7.49875 8.31272C7.63292 8.17855 7.7 8.0123 7.7 7.81396V5.01396C7.7 4.81563 7.63292 4.64938 7.49875 4.51521C7.36458 4.38105 7.19833 4.31396 7 4.31396C6.80167 4.31396 6.63542 4.38105 6.50125 4.51521C6.36708 4.64938 6.3 4.81563 6.3 5.01396V7.81396C6.3 8.0123 6.36708 8.17855 6.50125 8.31272C6.63542 8.44688 6.80167 8.51396 7 8.51396ZM7 14.814C6.03167 14.814 5.12167 14.6302 4.27 14.2627C3.41833 13.8952 2.6775 13.3965 2.0475 12.7665C1.4175 12.1365 0.91875 11.3956 0.55125 10.544C0.18375 9.6923 0 8.7823 0 7.81396C0 6.84563 0.18375 5.93563 0.55125 5.08396C0.91875 4.2323 1.4175 3.49146 2.0475 2.86146C2.6775 2.23146 3.41833 1.73271 4.27 1.36521C5.12167 0.997715 6.03167 0.813965 7 0.813965C7.96833 0.813965 8.87833 0.997715 9.73 1.36521C10.5817 1.73271 11.3225 2.23146 11.9525 2.86146C12.5825 3.49146 13.0812 4.2323 13.4487 5.08396C13.8162 5.93563 14 6.84563 14 7.81396C14 8.7823 13.8162 9.6923 13.4487 10.544C13.0812 11.3956 12.5825 12.1365 11.9525 12.7665C11.3225 13.3965 10.5817 13.8952 9.73 14.2627C8.87833 14.6302 7.96833 14.814 7 14.814Z" fill="#FF9522"/>
</svg>
